<svg width="180" height="88" viewBox="0 0 180 88" fill="none" xmlns="http://www.w3.org/2000/svg">
<g clip-path="url(#clip0_213_73825)">
<path d="M5.36118 88.0008H0V63.3633H4.49846L11.8932 75.651L19.2263 63.3633H23.7864V88.0008H18.3636V74.596L11.8932 84.5255L5.36118 74.596V88.0008Z" fill="white"/>
<path d="M46.4019 83.2222V88.0008H29.5789V63.3633H46.4019V68.0798H34.9401V73.2928H45.416V78.0093H34.9401V83.2222H46.4019Z" fill="white"/>
<path d="M64.2725 88.0008H58.8497V68.328H52.2561V63.3633H70.9894V68.328H64.2725V88.0008Z" fill="white"/>
<path d="M84.2999 69.0107L78.569 88.0008H72.5916L81.4036 63.3633H87.3194L96.0698 88.0008H90.0308L84.2999 69.0107Z" fill="white"/>
<path d="M109.935 88.0008H104.512V68.328H97.8569V63.3633H116.59V68.328H109.935V88.0008Z" fill="white"/>
<path d="M127.744 63.3633H122.383V87.9387H127.744V63.3633Z" fill="white"/>
<path d="M138.959 88.0008H133.598V63.3633H138.096L145.491 75.651L152.824 63.3633H157.384V88.0008H151.962V74.596L145.491 84.5255L138.959 74.596V88.0008Z" fill="white"/>
<path d="M180 83.2222V88.0008H163.177V63.3633H180V68.0798H168.538V73.2928H178.952V78.0093H168.538V83.2222H180Z" fill="white"/>
<path d="M78.076 9.55664C76.1657 12.9699 73.3927 15.8246 70.0034 17.6864C73.3927 19.6102 76.2273 22.4029 78.076 25.8162C79.9863 22.4029 82.7593 19.5482 86.1486 17.6864C82.7593 15.8246 79.9863 12.9699 78.076 9.55664Z" fill="white"/>
<path d="M94.2211 9.55664C92.3108 12.9699 89.5378 15.8246 86.1486 17.6864C89.5378 19.6102 92.3725 22.4029 94.2211 25.8162C96.1314 22.4029 98.9045 19.5482 102.294 17.6864C98.9661 15.8246 96.1314 12.9699 94.2211 9.55664Z" fill="white"/>
<path d="M78.076 25.8164C76.1657 29.2297 73.3927 32.0844 70.0034 33.9462C73.3927 35.87 76.2273 38.6627 78.076 42.0759C79.9863 38.6627 82.7593 35.8079 86.1486 33.9462C82.7593 32.0844 79.9863 29.2297 78.076 25.8164Z" fill="white"/>
<path d="M94.2211 25.8164C92.3108 29.2297 89.5378 32.0844 86.1486 33.9462C89.5378 35.87 92.3725 38.6627 94.2211 42.0759C96.1314 38.6627 98.9045 35.8079 102.294 33.9462C98.9661 32.0844 96.1314 29.2297 94.2211 25.8164Z" fill="white"/>
<path d="M86.2102 22.0938C84.608 22.9626 83.3139 24.3279 82.3896 25.9414C83.2523 27.555 84.608 28.8582 86.2102 29.7891C87.8124 28.9203 89.1065 27.555 90.0308 25.9414C89.1065 24.3279 87.8124 22.9626 86.2102 22.0938Z" fill="white"/>
<path d="M70.0034 21.2246V30.5956C71.1126 28.6097 72.7148 26.9961 74.6867 25.8791C72.7148 24.824 71.1126 23.2105 70.0034 21.2246Z" fill="white"/>
<path d="M102.355 30.5956V21.2246C101.246 23.2105 99.6439 24.824 97.672 25.9411C99.5823 26.9961 101.246 28.6717 102.355 30.5956Z" fill="white"/>
<path d="M90.8319 9.55664H81.5269C83.4988 10.6737 85.101 12.2872 86.2102 14.2731C87.2578 12.3493 88.86 10.6737 90.8319 9.55664Z" fill="white"/>
<path d="M81.4652 42.1384H90.7702C88.7983 41.0213 87.1961 39.4078 86.0869 37.4219C85.0393 39.4078 83.4371 41.0213 81.4652 42.1384Z" fill="white"/>
</g>
<defs>
<clipPath id="clip0_213_73825">
<rect width="180" height="88" fill="white"/>
</clipPath>
</defs>
</svg>
