<svg xmlns="http://www.w3.org/2000/svg" xmlns:xlink="http://www.w3.org/1999/xlink" width="1178.587" height="698.217" viewBox="0 0 1178.587 698.217">
  <defs>
    <style>
      .cls-1, .cls-3 {
        fill: none;
      }

      .cls-2 {
        fill: #a3ceff;
      }

      .cls-3 {
        stroke: #191c3c;
        stroke-miterlimit: 10;
      }

      .cls-4 {
        fill: #bcdbff;
      }

      .cls-5 {
        fill: #fec55e;
      }

      .cls-6 {
        fill: #3498db;
      }

      .cls-7, .cls-8 {
        fill: #191c3c;
      }

      .cls-7 {
        opacity: 0.3;
      }

      .cls-9 {
        fill: #474963;
      }

      .cls-10 {
        fill: #d9e7ed;
      }

      .cls-11, .cls-13, .cls-17 {
        fill: #3a3c4e;
      }

      .cls-11 {
        opacity: 0.2;
      }

      .cls-12 {
        fill: #e0a546;
      }

      .cls-14 {
        fill: #4d5068;
      }

      .cls-15 {
        fill: #dd9c3e;
      }

      .cls-16 {
        fill: #bf9447;
      }

      .cls-17 {
        opacity: 0.1;
      }

      .cls-18 {
        fill: #2d1582;
      }

      .cls-19 {
        fill: #de4437;
      }

      .cls-20 {
        fill: #00c9a7;
      }

      .cls-21 {
        fill: #ffc107;
      }

      .cls-22 {
        fill: #fff;
      }

      .cls-23 {
        clip-path: url(#clip-path);
      }

      .cls-24 {
        fill: #e3e9f3;
      }

      .cls-25 {
        fill: #f5f7fc;
      }

      .cls-26 {
        fill: #e0e4eb;
      }

      .cls-27 {
        fill: #eff3f9;
      }
    </style>
    <clipPath id="clip-path">
      <rect id="Rectangle_2" data-name="Rectangle 2" class="cls-1" width="334.592" height="358.491" transform="translate(614 129)"/>
    </clipPath>
  </defs>
  <g id="virtual-reality-ether" transform="translate(0.074 0.05)">
    <g id="Group_102" data-name="Group 102" transform="translate(-0.078 332.26)">
      <g id="Group_26" data-name="Group 26" transform="translate(1089.979 169.642)">
        <g id="Group_25" data-name="Group 25">
          <g id="Group_24" data-name="Group 24">
            <path id="Path_27" data-name="Path 27" class="cls-2" d="M394.309,282.26a1.128,1.128,0,0,0-.646.323c-7.749,3.552-11.624,2.906-19.05-.323-6.78-3.229-13.561-6.78-19.05-11.946-7.1-6.458-12.592-14.852-13.884-24.216-.323-2.26-.323-4.52.969-6.135,1.614-2.26,5.166-2.583,8.072-1.614,2.583.969,4.843,3.229,7.1,5.166a6.7,6.7,0,0,0,3.229,1.937,2.923,2.923,0,0,0,3.229-.969c.969-1.614-.646-3.875-2.26-5.166-3.552-2.906-6.78-4.52-10.655-7.426-4.52-3.229-9.041-7.426-11.624-12.269-2.583-5.166-3.229-11.3-.323-16.467a10.263,10.263,0,0,1,3.552-3.874c2.583-1.614,5.812-1.614,9.04-.969,2.906.646,5.812,1.937,9.041,2.26,7.1.646,10.009-4.2,10.009-10.978,0-4.52-1.614-8.718-1.937-13.238-.323-7.749,3.552-16.144,10.655-19.7,7.1-3.229,17.112,0,19.7,7.426,2.906,8.072-3.552,17.112.646,24.861a21.538,21.538,0,0,0,6.78,7.426c3.875,2.583,9.686-.323,14.207-.323a4.507,4.507,0,0,1,2.906.969c.646.646.646,1.292.969,1.937a17.453,17.453,0,0,1-5.166,15.5c-4.843,4.52-13.238,6.458-15.175,13.561-1.292,4.2-.646,14.852,6.135,13.884,2.583-.323,4.2-2.906,6.78-3.875,2.906-.969,6.458.969,7.749,3.875a11.818,11.818,0,0,1-.323,9.363c-1.937,4.52-5.489,8.395-9.04,11.946C408.516,270.637,403.672,277.74,394.309,282.26Z" transform="translate(-337.508 -155.413)"/>
          </g>
          <line id="Line_1" data-name="Line 1" class="cls-3" y2="164.666" transform="translate(46.792 28.37)"/>
          <path id="Path_28" data-name="Path 28" class="cls-3" d="M384.422,173l-19.05,19.05L346,173" transform="translate(-318.58 -116.217)"/>
          <path id="Path_29" data-name="Path 29" class="cls-3" d="M384.422,184.9l-19.05,19.05L346,184.9" transform="translate(-318.58 -89.695)"/>
        </g>
      </g>
      <g id="Group_28" data-name="Group 28" transform="translate(66.733)">
        <g id="Group_27" data-name="Group 27">
          <path id="Path_30" data-name="Path 30" class="cls-2" d="M80.03,236.309a1.127,1.127,0,0,0-.646.323c-8.072,3.875-12.269,3.229-20.018-.323-7.1-3.229-14.207-7.1-20.018-12.592-7.426-6.78-13.238-15.5-14.529-25.507-.323-2.26-.323-4.52.969-6.458,1.937-2.583,5.489-2.906,8.395-1.614,2.906.969,5.166,3.229,7.426,5.489a11.6,11.6,0,0,0,3.229,2.26A3.065,3.065,0,0,0,48.39,196.6c.969-1.937-.646-3.874-2.26-5.166-3.875-3.229-7.1-4.843-10.978-7.749-4.843-3.552-9.363-7.749-12.269-12.915-2.583-5.489-3.229-11.946-.646-17.435a11.243,11.243,0,0,1,3.552-4.2c2.583-1.614,6.135-1.614,9.363-.969s6.135,1.937,9.363,2.26c7.749.646,10.655-4.52,10.332-11.624,0-4.843-1.614-9.363-1.937-13.884-.323-8.4,3.552-17.112,10.978-20.664s18.081,0,20.664,7.749c2.906,8.395-3.874,18.081.646,26.153a23.226,23.226,0,0,0,7.1,7.749c4.2,2.583,10.332-.323,15.175-.323a4.507,4.507,0,0,1,2.906.969c.646.646.646,1.292.969,2.26a17.8,17.8,0,0,1-5.489,16.467c-5.166,4.52-13.884,6.78-15.821,14.207-1.292,4.52-.646,15.5,6.458,14.529,2.583-.323,4.52-2.906,7.1-3.874a6.839,6.839,0,0,1,8.072,4.2c1.292,2.906.969,6.457-.323,9.686-1.937,4.843-5.812,8.718-9.363,12.592C94.882,223.717,90.039,231.143,80.03,236.309Z" transform="translate(-20.591 -102.872)"/>
        </g>
        <line id="Line_2" data-name="Line 2" class="cls-3" y2="289.296" transform="translate(49.107 29.794)"/>
        <path id="Path_31" data-name="Path 31" class="cls-3" d="M69.859,121.4,49.841,141.418,29.5,121.4" transform="translate(-0.734 -61.578)"/>
        <path id="Path_32" data-name="Path 32" class="cls-3" d="M69.859,133.9,49.841,153.918,29.5,133.9" transform="translate(-0.734 -33.719)"/>
      </g>
      <g id="Group_30" data-name="Group 30" transform="translate(0 110.025)">
        <g id="Group_29" data-name="Group 29">
          <path id="Path_33" data-name="Path 33" class="cls-4" d="M47.959,243.986c-.323,0-.323.323-.646.323-6.458,2.906-9.686,2.583-16.144-.323a64.24,64.24,0,0,1-16.144-10.009C8.891,228.811,4.37,221.384,3.4,213.635c0-1.937,0-4.2.969-5.489a5.9,5.9,0,0,1,6.78-1.292,19.166,19.166,0,0,1,5.812,4.2,7.03,7.03,0,0,0,2.583,1.614,2.6,2.6,0,0,0,2.906-.969c.969-1.614-.646-3.229-1.937-4.2-2.906-2.583-5.812-3.875-9.041-6.135-3.875-2.906-7.426-6.135-9.686-10.332a15.073,15.073,0,0,1-.323-13.884,7.068,7.068,0,0,1,2.906-3.229,9.956,9.956,0,0,1,7.426-.646c2.583.646,4.843,1.614,7.426,1.937,6.135.646,8.4-3.552,8.4-9.363,0-3.874-1.292-7.426-1.614-11.3-.323-6.457,2.906-13.561,8.718-16.467,6.135-2.906,14.529,0,16.467,6.135,2.26,6.78-2.906,14.529.646,20.987a22.5,22.5,0,0,0,5.812,6.458c3.229,1.937,8.072-.323,11.946-.323.969,0,1.937,0,2.26.646A2.466,2.466,0,0,1,72.5,173.6a13.734,13.734,0,0,1-4.52,13.238c-3.874,3.552-10.978,5.489-12.592,11.3-.969,3.552-.646,12.592,5.166,11.624,2.26-.323,3.552-2.583,5.489-3.229,2.583-.969,5.489.969,6.458,3.229,1.291,2.26.646,5.166-.323,7.749-1.614,3.875-4.52,7.1-7.426,10.009C59.9,233.977,56.031,239.788,47.959,243.986Z" transform="translate(0.078 -136.949)"/>
        </g>
        <line id="Line_3" data-name="Line 3" class="cls-3" y2="231.824" transform="translate(39.642 24.058)"/>
        <path id="Path_34" data-name="Path 34" class="cls-3" d="M39.488,151.8,23.344,167.944,7.2,151.8" transform="translate(16.298 -103.849)"/>
        <path id="Path_35" data-name="Path 35" class="cls-3" d="M39.488,161.8,23.344,177.944,7.2,161.8" transform="translate(16.298 -81.562)"/>
      </g>
      <g id="Group_101" data-name="Group 101" transform="translate(365.07 226.981)">
        <g id="Group_100" data-name="Group 100">
          <path id="Path_114" data-name="Path 114" class="cls-2" d="M172.43,306.609a1.127,1.127,0,0,0-.646.323c-8.072,3.875-12.269,3.229-20.018-.323-7.1-3.229-14.207-7.1-20.018-12.592-7.426-6.78-13.238-15.5-14.529-25.507-.323-2.26-.323-4.52.969-6.458,1.937-2.583,5.489-2.906,8.4-1.614,2.906.969,5.166,3.229,7.426,5.489a11.6,11.6,0,0,0,3.229,2.26,3.065,3.065,0,0,0,3.552-1.292c.969-1.937-.646-3.875-2.26-5.166-3.875-3.229-7.1-4.843-10.978-7.749-4.843-3.552-9.363-7.749-12.269-12.915-2.583-5.489-3.229-11.946-.646-17.435a11.243,11.243,0,0,1,3.552-4.2c2.583-1.614,6.135-1.614,9.363-.969s6.135,1.937,9.363,2.26c7.749.646,10.655-4.52,10.332-11.624,0-4.843-1.614-9.363-1.937-13.884-.323-8.4,3.552-17.112,10.978-20.664s18.081,0,20.664,7.749c2.906,8.4-3.874,18.081.646,26.153a23.225,23.225,0,0,0,7.1,7.749c4.2,2.583,10.332-.323,15.175-.323a4.507,4.507,0,0,1,2.906.969c.646.646.646,1.292.969,2.26a17.8,17.8,0,0,1-5.489,16.467c-5.166,4.52-13.884,6.78-15.821,14.206-1.291,4.52-.646,15.5,6.458,14.529,2.583-.323,4.52-2.906,7.1-3.874a6.839,6.839,0,0,1,8.072,4.2c1.292,2.906.969,6.457-.323,9.686-1.937,4.843-5.812,8.718-9.363,12.592C187.282,294.34,182.116,301.766,172.43,306.609Z" transform="translate(-112.991 -173.172)"/>
        </g>
        <line id="Line_4" data-name="Line 4" class="cls-3" y2="103.966" transform="translate(48.784 29.794)"/>
        <path id="Path_115" data-name="Path 115" class="cls-3" d="M161.937,191.7l-20.018,20.018L121.9,191.7" transform="translate(-93.134 -131.878)"/>
        <path id="Path_116" data-name="Path 116" class="cls-3" d="M161.937,204.2l-20.018,20.018L121.9,204.2" transform="translate(-93.134 -104.019)"/>
      </g>
    </g>
    <g id="Group_112" data-name="Group 112" transform="translate(203.585 179.019)">
      <g id="Group_111" data-name="Group 111">
        <rect id="Rectangle_1" data-name="Rectangle 1" class="cls-5" width="22.601" height="23.57" transform="translate(15.175 484.278)"/>
        <rect id="Rectangle_2-2" data-name="Rectangle 2" class="cls-5" width="22.601" height="23.57" transform="translate(68.127 484.278)"/>
        <path id="Path_117" data-name="Path 117" class="cls-6" d="M88.789,130.6l-1.937,144L83.3,381.151h28.09l5.81-107.194,20.02-108.164V130.6Z" transform="translate(-17.756 112.168)"/>
        <path id="Path_118" data-name="Path 118" class="cls-7" d="M84.2,287.2l3.229-13.238L112.29,173.22l22.924-14.529V130.6H86.783l-1.937,144Z" transform="translate(-15.75 112.168)"/>
        <path id="Path_119" data-name="Path 119" class="cls-6" d="M90.37,130.6,85.2,279.445,66.8,381.151H94.567l25.507-107.2L144.936,173.22,174,154.82V130.6Z" transform="translate(-54.531 112.168)"/>
        <g id="Group_104" data-name="Group 104" transform="translate(62.638 489.24)">
          <path id="Path_120" data-name="Path 120" class="cls-6" d="M84.014,215.536,82.4,218.765v16.789h78.459l4.52-2.26-3.229-11.3a1.568,1.568,0,0,0-1.937-.969l-5.489,1.937-12.269-2.906L121.468,208.11a4.211,4.211,0,0,0-6.135.323l-8.072,9.363H89.826l-2.26-2.26a1.989,1.989,0,0,0-3.552,0Z" transform="translate(-82.4 -206.937)"/>
          <g id="Group_103" data-name="Group 103" transform="translate(0 1.778)">
            <path id="Path_121" data-name="Path 121" class="cls-8" d="M160.859,216.137H82.4v2.906h78.459l4.52-2.26-.969-2.583Z" transform="translate(-82.4 -192.527)"/>
            <rect id="Rectangle_3" data-name="Rectangle 3" class="cls-8" width="4.52" height="6.78" transform="matrix(0.538, -0.843, 0.843, 0.538, 38.98, 3.809)"/>
            <rect id="Rectangle_4" data-name="Rectangle 4" class="cls-8" width="4.52" height="6.78" transform="matrix(0.538, -0.843, 0.843, 0.538, 46.959, 9.078)"/>
            <path id="Path_122" data-name="Path 122" class="cls-8" d="M103.71,211.5c0,3.875-3.874,7.1-7.749,5.812L82.4,213.437V211.5Z" transform="translate(-82.4 -198.544)"/>
          </g>
        </g>
        <path id="Path_123" data-name="Path 123" class="cls-7" d="M109.844,229.418l4.843-2.583-3.552-11.946a1.439,1.439,0,0,0-1.937-.969l-5.812,1.937-13.238-3.229L84.66,209.4l-.646.646L82.4,213.275v16.144Z" transform="translate(-19.762 287.793)"/>
        <g id="Group_106" data-name="Group 106" transform="translate(9.041 489.24)">
          <path id="Path_124" data-name="Path 124" class="cls-6" d="M67.414,215.536,65.8,218.765v16.789h78.459l4.52-2.26-3.229-11.3a1.568,1.568,0,0,0-1.937-.969l-5.489,1.937-12.269-2.906L104.868,208.11a4.21,4.21,0,0,0-6.135.323L90.661,217.8H73.226l-2.26-2.26a1.989,1.989,0,0,0-3.552,0Z" transform="translate(-65.8 -206.937)"/>
          <g id="Group_105" data-name="Group 105" transform="translate(0 1.774)">
            <path id="Path_125" data-name="Path 125" class="cls-8" d="M144.259,216.137H65.8v2.906h78.459l4.52-2.26-.969-2.583Z" transform="translate(-65.8 -192.522)"/>
            <rect id="Rectangle_5" data-name="Rectangle 5" class="cls-8" width="4.52" height="6.78" transform="matrix(0.538, -0.843, 0.843, 0.538, 38.925, 3.809)"/>
            <rect id="Rectangle_6" data-name="Rectangle 6" class="cls-8" width="4.52" height="6.78" transform="matrix(0.538, -0.843, 0.843, 0.538, 46.905, 9.078)"/>
            <path id="Path_126" data-name="Path 126" class="cls-8" d="M87.11,211.5c0,3.875-3.874,7.1-7.749,5.812L65.8,213.437V211.5Z" transform="translate(-65.8 -198.54)"/>
          </g>
        </g>
        <path id="Path_127" data-name="Path 127" class="cls-7" d="M106.51,135.606l-3.875,9.363a12.927,12.927,0,0,1-12.269,8.4H73.9v1.614H93.6a12.927,12.927,0,0,0,12.269-8.4l5.489-13.884Z" transform="translate(-38.707 116.848)"/>
        <path id="Path_128" data-name="Path 128" class="cls-5" d="M125.076,146.036h22.278l-27.122-43.911L105.38,94.7A12.184,12.184,0,0,1,98.6,83.722V57.569a.856.856,0,0,1,.969-.969h0a11.933,11.933,0,0,1,9.363,4.52l14.529,18.4L128.3,91.471l47.463,55.212a5.189,5.189,0,0,1-.646,7.426h0a54.43,54.43,0,0,1-18.4,9.041l-34.225,8.4Z" transform="translate(16.344 -52.76)"/>
        <rect id="Rectangle_7" data-name="Rectangle 7" class="cls-5" width="36.162" height="55.857" transform="translate(51.66 47.751)"/>
        <g id="Group_107" data-name="Group 107" transform="translate(36.091)">
          <path id="Path_129" data-name="Path 129" class="cls-8" d="M131.075,63.448c-1.937-2.583-5.166-2.26-7.426-3.552-2.906-1.614-3.552-3.229-7.1-3.874a20.988,20.988,0,0,0-10.009,0c-4.843,1.292-9.041,4.52-13.884,4.843a24.276,24.276,0,0,0-4.843,0c-1.614.323-3.229.969-3.552,2.583s.323,3.552-.969,4.52c-.646.323-1.292.323-1.937.646-3.874.323-7.749,6.135-7.1,10.009l.969,2.906a80.754,80.754,0,0,1,5.812,15.5c.969,4.843,3.552,9.363,3.552,14.529A30.692,30.692,0,0,0,89.1,125.44c.323.323.646.969,1.292.646a1.127,1.127,0,0,0,.323-.646c.323-1.937.323-3.874.646-5.812A11.254,11.254,0,0,1,93.3,114.14c.323-.646.969-.969,1.292-1.614,1.292-1.937.646-4.52,1.614-6.458.969-2.583,2.583-5.166,3.875-7.749a5.2,5.2,0,0,1,1.292-2.26c.646-.646,1.292-.646,1.937-.969,2.906-1.292,5.812-2.26,8.718-3.552A40.893,40.893,0,0,1,117.84,89.6c.969-.323,2.26-.323,3.229-.646,2.26-.969,3.229-3.874,3.874-6.458s.969-5.489,3.229-7.1a10.054,10.054,0,0,0,2.906-2.26c.646-.969,0-2.583.646-3.552a7.057,7.057,0,0,1,.969-1.614A17.128,17.128,0,0,0,131.075,63.448Z" transform="translate(-74.178 -55.411)"/>
        </g>
        <path id="Path_130" data-name="Path 130" class="cls-7" d="M79,78.272a13.671,13.671,0,0,0,3.874,1.292l5.489.323,1.292,1.937a14.611,14.611,0,0,0,10.655,7.1l14.852-2.906V70.2H79Z" transform="translate(-27.34 -22.449)"/>
        <path id="Path_131" data-name="Path 131" class="cls-5" d="M128.491,81.547l1.937,4.843a18.283,18.283,0,0,1,.972,5.81l-1.292,12.915a9.022,9.022,0,0,1-10.655,7.749l-16.467-3.552a18.523,18.523,0,0,1-10.655-7.1l-1.292-1.937-5.489-.323a8.319,8.319,0,0,1-6.135-3.229h0A7.715,7.715,0,0,1,77.8,92.2V90.91a4.856,4.856,0,0,1,1.292-3.552h0a4.745,4.745,0,0,1,4.52-1.614l2.26.646V75.09A14.15,14.15,0,0,1,96.527,61.529L110.41,58.3l12.915,2.26Z" transform="translate(-30.014 -48.971)"/>
        <path id="Path_132" data-name="Path 132" class="cls-9" d="M81.675,72.818c-.323.323-.969,0-.969-.646V64.1L77.8,65.714v8.072c0,.323.323.646.969.646Z" transform="translate(-30.014 -36.044)"/>
        <path id="Path_133" data-name="Path 133" class="cls-7" d="M113.1,84.3h-4.52L106,109.807l4.843-1.291Z" transform="translate(32.836 8.977)"/>
        <path id="Path_134" data-name="Path 134" class="cls-10" d="M90.2,80.7l30.35,6.135h23.893l-3.552,34.871L120.55,133.652,90.2,86.835Z" transform="translate(-2.378 0.953)"/>
        <path id="Path_135" data-name="Path 135" class="cls-10" d="M95.493,78.2,71.6,108.227l4.52,147.231h89.436L162,139.223l-30.35-53.274L120.03,108.227Z" transform="translate(-43.833 -4.619)"/>
        <g id="Group_109" data-name="Group 109" transform="translate(48.253 3.501)">
          <g id="Group_108" data-name="Group 108">
            <path id="Path_136" data-name="Path 136" class="cls-8" d="M85.549,78.789c1.937-2.583,5.166-3.229,7.1-5.489.646-.646,1.292-2.583,1.937-2.906.969-.646,3.229,0,4.2,0,2.26,0,3.874-.969,5.812-2.26,3.229-2.583,2.906-3.552,7.1-3.552,5.166,0,5.166-8.072,0-8.072-3.552,0-6.135-.323-9.041,1.937-.969.646-1.937,2.26-2.906,2.906-1.937,1.292-4.52.323-6.78.969-3.875.969-4.2,3.552-7.1,5.812s-4.843,3.552-7.1,6.458c-3.229,4.52,3.874,8.395,6.78,4.2Z" transform="translate(-77.945 -56.495)"/>
          </g>
        </g>
        <g id="Group_110" data-name="Group 110" transform="translate(41.651 1.087)">
          <path id="Path_137" data-name="Path 137" class="cls-9" d="M141.318,83.63l-23.57,2.26-2.26-1.937-8.718.969S96.115,88.15,85.46,79.433L83.2,71.684,110.644,57.8Z" transform="translate(-59.63 -51.173)"/>
          <path id="Path_138" data-name="Path 138" class="cls-9" d="M124.316,83.684,90.737,74.321a2.77,2.77,0,0,1-1.937-2.26V58.177a2.385,2.385,0,0,1,3.229-2.26l33.579,9.363a2.77,2.77,0,0,1,1.937,2.26V81.424C127.222,83.039,125.608,84.33,124.316,83.684Z" transform="translate(-47.149 -55.747)"/>
          <path id="Path_139" data-name="Path 139" class="cls-8" d="M119.811,68.04,76.869,89.027c-.323.323-.969,0-.969-.646V80.31L119.811,59Z" transform="translate(-75.9 -48.498)"/>
          <path id="Path_140" data-name="Path 140" class="cls-9" d="M79.775,73.818c-.323.323-.969,0-.969-.646V65.1L75.9,66.714v8.072c0,.323.323.646.969.646Z" transform="translate(-75.9 -34.903)"/>
          <path id="Path_141" data-name="Path 141" class="cls-9" d="M81.675,72.818c-.323.323-.969,0-.969-.646V64.1L77.8,65.714v8.072c0,.323.323.646.969.646Z" transform="translate(-71.665 -37.132)"/>
          <path id="Path_142" data-name="Path 142" class="cls-9" d="M83.575,72.018c-.323.323-.969,0-.969-.646V63.3L79.7,64.914v8.072c0,.323.323.646.969.646Z" transform="translate(-67.431 -38.915)"/>
          <path id="Path_143" data-name="Path 143" class="cls-9" d="M85.475,71.118c-.323.323-.969,0-.969-.646V62.4L81.6,64.014v8.072c0,.323.323.646.969.646Z" transform="translate(-63.196 -40.92)"/>
          <path id="Path_144" data-name="Path 144" class="cls-9" d="M87.374,70.118c-.323.323-.969,0-.969-.646V61.4l-2.9,1.614v8.072c0,.323.323.646.969.646Z" transform="translate(-58.961 -43.149)"/>
          <path id="Path_145" data-name="Path 145" class="cls-9" d="M89.274,69.218c-.323.323-.969,0-.969-.646V60.5l-2.9,1.614v8.072c0,.323.323.646.969.646Z" transform="translate(-54.727 -45.155)"/>
          <path id="Path_146" data-name="Path 146" class="cls-9" d="M91.174,68.218c-.323.323-.969,0-.969-.646V59.5l-2.9,1.614v8.072c0,.323.323.646.969.646Z" transform="translate(-50.492 -47.384)"/>
          <path id="Path_147" data-name="Path 147" class="cls-8" d="M125.716,87.982,92.137,78.941a2.77,2.77,0,0,1-1.937-2.26v-18.4a2.385,2.385,0,0,1,3.229-2.26l33.579,9.363a2.77,2.77,0,0,1,1.937,2.26v18.4a2.468,2.468,0,0,1-3.229,1.938Z" transform="translate(-44.029 -55.525)"/>
          <ellipse id="Ellipse_1" data-name="Ellipse 1" class="cls-9" cx="1.937" cy="3.552" rx="1.937" ry="3.552" transform="translate(65.221 12.762)"/>
        </g>
        <path id="Path_148" data-name="Path 148" class="cls-11" d="M82.878,180.339c0,3.874-3.874,10.332-3.229,14.529a59.589,59.589,0,0,0,1.292,7.426c1.292,4.843,8.395,2.583,7.426-1.937-1.614-7.1,0-16.79-4.843-22.924.323-.969.323-1.937.646-2.906a3.447,3.447,0,0,0-.969-3.552c-2.26-2.26-12.592-15.175-7.426-20.018a3.472,3.472,0,0,0,.646-4.52c-.969-1.292-1.937-2.906-2.906-4.52l6.78-2.906c1.614-.969,2.583-3.552,1.292-5.166-3.23-4.845-5.813-10.332-5.487-16.467,0-2.583,1.614-4.2,1.614-6.78,0-4.2-2.583-7.749-2.26-11.946C75.777,96.069,73.84,95.1,71.9,95.1l2.583,79.1a12.956,12.956,0,0,1,.969,4.843c0,.646-.323.969,0,1.614,0,.323,0,.323.323.646C76.42,185.505,82.232,184.536,82.878,180.339Z" transform="translate(-43.164 33.047)"/>
        <path id="Path_149" data-name="Path 149" class="cls-5" d="M99.593,223.793h-2.26l-3.874-10.009v-29.7L66.337,143.72a10.63,10.63,0,0,1-1.937-6.135V101.1l23.247,6.135L85.71,142.1,106.7,180.85l10.978,13.561,4.52,21.633h0a5.142,5.142,0,0,1-4.843-3.875l-1.292-3.874-1.292,14.852H99.593Z" transform="translate(-59.88 46.42)"/>
        <path id="Path_150" data-name="Path 150" class="cls-7" d="M64.4,107.235l22.924,5.812.323-5.812L64.4,101.1Z" transform="translate(-59.88 46.42)"/>
        <path id="Path_151" data-name="Path 151" class="cls-10" d="M114.66,78.2,82.373,94.021a30,30,0,0,0-16.79,25.184L63,152.461l29.7,7.749,6.458-30.027,15.5-37.776Z" transform="translate(-63 -4.619)"/>
      </g>
    </g>
    <g id="Group_122" data-name="Group 122" transform="translate(793.8 165.746)">
      <g id="Group_121" data-name="Group 121">
        <path id="Path_152" data-name="Path 152" class="cls-12" d="M348.457,202.5l-1.614,11.624L316.17,229.3l-23.57,5.166s1.937,10.332,20.341,10.978,54.889-1.292,54.889-1.292h0a13.534,13.534,0,0,0,3.229-9.04v-4.52a6.313,6.313,0,0,0-4.2-6.135h0l-.323-19.05Z" transform="translate(-141.494 285.687)"/>
        <path id="Path_153" data-name="Path 153" class="cls-6" d="M371.059,212.883a6.083,6.083,0,0,0-.646-2.583c-1.937.969-4.843,5.812-6.78,5.812-11.946.323-24.861,1.291-34.87.646-10.009-.323-15.821-.969-18.4-3.552L292.6,217.08s1.937,10.332,20.341,10.978,54.889-1.291,54.889-1.291a13.534,13.534,0,0,0,3.229-9.041v-4.843Z" transform="translate(-141.494 303.072)"/>
        <path id="Path_154" data-name="Path 154" class="cls-5" d="M335.29,204.914v5.812L289.441,230.1s-2.583,14.852,26.153,11.946l50.691-9.686a106.324,106.324,0,0,0,2.906-10.655,9.191,9.191,0,0,0-3.229-8.718h0L355.631,203.3Z" transform="translate(-148.668 287.47)"/>
        <path id="Path_155" data-name="Path 155" class="cls-6" d="M368.223,207.3a19.228,19.228,0,0,1-10.978,8.4l-19.7,5.489c-24.216,2.26-26.476-6.135-26.476-9.363l-21.633,9.041s-2.583,14.852,26.153,11.946l50.691-9.686a106.325,106.325,0,0,0,2.906-10.655,7.484,7.484,0,0,0-.963-5.167Z" transform="translate(-148.668 296.385)"/>
        <path id="Path_156" data-name="Path 156" class="cls-13" d="M351.008,141.8l-8.072,82.01c14.852,35.516.969,116.558.969,116.558H325.178L314.2,235.434l-11.3-29.059Z" transform="translate(-118.538 150.402)"/>
        <g id="Group_113" data-name="Group 113" transform="translate(184.039 291.879)">
          <path id="Path_157" data-name="Path 157" class="cls-7" d="M313.132,233.4l29.059-71.678,7.1-5.812.646-.646,1.292-13.561L302.8,206.6Z" transform="translate(-302.8 -141.7)"/>
          <path id="Path_158" data-name="Path 158" class="cls-7" d="M315.718,260.456l5.166-.323S324.758,207.827,307,177.8Z" transform="translate(-293.439 -61.242)"/>
        </g>
        <path id="Path_159" data-name="Path 159" class="cls-14" d="M319.536,137.9,290.8,268.991l41.651,97.831,20.018-1.614s4.843-68.127-22.6-93.634l34.225-85.239,7.1-5.812A25.559,25.559,0,0,0,380.88,160.5V130.8Z" transform="translate(-145.506 125.886)"/>
        <g id="Group_114" data-name="Group 114" transform="translate(232.016 14.601)">
          <path id="Path_160" data-name="Path 160" class="cls-15" d="M351.369,141.958c-3.229-4.843-4.2-10.655-5.166-16.144a107.085,107.085,0,0,1-.323-20.341,39.429,39.429,0,0,0,.323-8.718c-.323-1.937-.969-4.2-1.292-6.135-1.937-8.718-.646-18.081-2.26-26.8a10.521,10.521,0,0,0-2.583-5.812c-2.26-2.26-6.135-2.906-8.718-1.292a9.71,9.71,0,0,0-4.843,7.749l.323-.646c-3.875,10.978-1.937,22.924-3.875,34.225-1.291,6.458-3.552,12.915-4.843,19.373-.969,6.458-.646,13.884,3.552,19.05a39.268,39.268,0,0,0,5.489,4.843,72.918,72.918,0,0,0,18.081,9.041,10.742,10.742,0,0,1-3.552-6.78c3.552,2.583,7.1,5.166,11.3,6.78s8.718,1.937,12.592,0C360.087,150.353,354.6,146.478,351.369,141.958Z" transform="translate(-317.659 -55.822)"/>
        </g>
        <g id="Group_118" data-name="Group 118" transform="translate(232.339 22.278)">
          <g id="Group_115" data-name="Group 115">
            <path id="Path_161" data-name="Path 161" class="cls-16" d="M332.743,137.627a25.718,25.718,0,0,1-5.489-4.843c-4.2-5.166-4.843-12.269-3.552-19.05.969-6.458,3.552-12.915,4.843-19.373,1.937-11.3-.323-31.965-.323-31.965.323-3.229-1.292-4.2-1.292-4.2-3.875,10.978-1.937,22.924-3.875,34.225-1.292,6.458-3.552,12.915-4.843,19.373-.969,6.458-.646,13.884,3.552,19.05a39.279,39.279,0,0,0,5.489,4.843,72.918,72.918,0,0,0,18.081,9.04l-.646-.646a70.4,70.4,0,0,1-11.945-6.454Z" transform="translate(-317.759 -58.2)"/>
          </g>
          <g id="Group_116" data-name="Group 116" transform="translate(45.334 86.531)">
            <path id="Path_162" data-name="Path 162" class="cls-16" d="M333.092,85.323c.323,0,.646-.323.969-.323H331.8C332.446,85,332.769,85.323,333.092,85.323Z" transform="translate(-331.8 -85)"/>
          </g>
          <g id="Group_117" data-name="Group 117" transform="translate(29.513 81.687)">
            <path id="Path_163" data-name="Path 163" class="cls-16" d="M326.9,83.5a5.986,5.986,0,0,0,.646,2.26,25.741,25.741,0,0,0,5.166,2.583c1.292.323,2.26.646,3.552.969A45.683,45.683,0,0,1,326.9,83.5Z" transform="translate(-326.9 -83.5)"/>
          </g>
        </g>
        <g id="Group_119" data-name="Group 119" transform="translate(189.851 18.391)">
          <path id="Path_164" data-name="Path 164" class="cls-15" d="M354.969,62.821c-1.292.969-3.229.646-4.843,0a18.305,18.305,0,0,1-4.2-2.583c-2.906-1.614-6.457-1.937-9.686-2.26-10.655-1.292-22.278-2.26-31,3.552h-.64c8.718,20.341,18.4,40.359,28.413,60.378,1.937-1.614,3.875-3.552,6.135-5.166,8.718-7.426,17.758-15.821,19.05-27.122C358.843,80.579,354.646,71.861,354.969,62.821Z" transform="translate(-304.6 -56.996)"/>
        </g>
        <rect id="Rectangle_8" data-name="Rectangle 8" class="cls-5" width="29.705" height="59.086" transform="translate(191.142 69.095)"/>
        <path id="Path_165" data-name="Path 165" class="cls-7" d="M316.3,90.358,305,88.1V72.6h29.7v2.26C334.7,84.869,325.664,92.3,316.3,90.358Z" transform="translate(-113.858 -3.828)"/>
        <path id="Path_166" data-name="Path 166" class="cls-5" d="M298.8,87.673V113.5a7.166,7.166,0,0,0,7.1,7.1h17.758a19.568,19.568,0,0,0,19.7-19.7V78.3a11.869,11.869,0,0,0-4.2-8.718l-11.624-9.363a9.784,9.784,0,0,0-10.978-.969C311.069,62.811,304.289,70.237,298.8,87.673Z" transform="translate(-127.676 -36.336)"/>
        <g id="Group_120" data-name="Group 120" transform="translate(137.545 15.771)">
          <path id="Path_167" data-name="Path 167" class="cls-9" d="M308.926,57.9,319.9,63.389a15.216,15.216,0,0,1,8.4,12.592l.323,4.52L301.5,74.367Z" transform="translate(-259.203 -52.362)"/>
          <path id="Path_168" data-name="Path 168" class="cls-9" d="M289.6,90.242l28.413,2.583,2.906-2.583,10.655,1.292s12.915,3.874,25.83-6.458l2.906-9.363L327.053,58.6Z" transform="translate(-285.725 -50.802)"/>
          <path id="Path_169" data-name="Path 169" class="cls-9" d="M293.974,90.136l40.682-11.3a3.1,3.1,0,0,0,2.26-2.906V59.14a3.188,3.188,0,0,0-3.875-2.906l-40.682,11.3a3.1,3.1,0,0,0-2.26,2.906V87.23a3.336,3.336,0,0,0,3.875,2.906Z" transform="translate(-284.611 -56.185)"/>
          <path id="Path_170" data-name="Path 170" class="cls-8" d="M304.023,70.855l51.983,25.507c.323.323.969,0,.969-.646V86.03L303.7,60.2V70.855Z" transform="translate(-254.3 -47.236)"/>
          <path id="Path_171" data-name="Path 171" class="cls-9" d="M318.8,77.932c.323.323.969,0,.969-.646V67.6l3.552,1.937v9.686c0,.646-.646.969-.969.646Z" transform="translate(-220.646 -30.743)"/>
          <path id="Path_172" data-name="Path 172" class="cls-9" d="M316.5,76.732c.323.323.969,0,.969-.646V66.4l3.552,1.937v9.686c0,.646-.646.969-.969.646Z" transform="translate(-225.772 -33.417)"/>
          <path id="Path_173" data-name="Path 173" class="cls-9" d="M314.2,75.632c.323.323.969,0,.969-.646V65.3l3.552,1.937v9.686c0,.646-.646.969-.969.646Z" transform="translate(-230.898 -35.869)"/>
          <path id="Path_174" data-name="Path 174" class="cls-9" d="M311.9,74.532c.323.323.969,0,.969-.646V64.2l3.552,1.937v9.686c0,.646-.646.969-.969.646Z" transform="translate(-236.024 -38.32)"/>
          <path id="Path_175" data-name="Path 175" class="cls-9" d="M309.6,73.432c.323.323.969,0,.969-.646V63.1l3.552,1.937v9.686c0,.646-.646.969-.969.646Z" transform="translate(-241.15 -40.772)"/>
          <path id="Path_176" data-name="Path 176" class="cls-9" d="M307.3,72.332c.323.323.969,0,.969-.646V62l3.552,1.937v9.686c0,.646-.646.969-.969.646Z" transform="translate(-246.277 -43.224)"/>
          <path id="Path_177" data-name="Path 177" class="cls-9" d="M305,71.132c.323.323.969,0,.969-.646V60.8l3.552,1.937v9.686c0,.646-.646.969-.969.646Z" transform="translate(-251.403 -45.898)"/>
          <path id="Path_178" data-name="Path 178" class="cls-8" d="M292.274,95.625l40.682-11.3a3.1,3.1,0,0,0,2.26-2.906V59.14a3.188,3.188,0,0,0-3.875-2.906l-40.682,11.3a3.1,3.1,0,0,0-2.26,2.906V92.719a3.027,3.027,0,0,0,3.875,2.906Z" transform="translate(-288.4 -56.185)"/>
          <ellipse id="Ellipse_2" data-name="Ellipse 2" class="cls-9" cx="2.26" cy="4.52" rx="2.26" ry="4.52" transform="translate(19.05 15.225)"/>
        </g>
        <path id="Path_179" data-name="Path 179" class="cls-5" d="M313.491,69.952s7.1-5.489,9.686-.323v9.363c0,3.552-1.937,7.1-5.166,8.4a8.726,8.726,0,0,1-5.812.323Z" transform="translate(-97.811 -15.386)"/>
        <path id="Path_180" data-name="Path 180" class="cls-8" d="M324.9,69.389l-5.812-6.135a3.437,3.437,0,0,1,0-4.52l.646-.646a3.437,3.437,0,0,1,4.52,0l5.812,6.135a3.437,3.437,0,0,1,0,4.52l-.646.646a3.121,3.121,0,0,1-4.52,0Z" transform="translate(-84.358 -38.07)"/>
        <path id="Path_181" data-name="Path 181" class="cls-7" d="M359.715,177.294a24.828,24.828,0,0,0,6.458-16.79V130.8l-61.346,7.1L297.4,171.482v3.229c29.059,7.1,51.983-22.6,51.983-22.6Z" transform="translate(-130.796 125.886)"/>
        <path id="Path_182" data-name="Path 182" class="cls-6" d="M295,84.5v59.086a63.005,63.005,0,0,0,4.52,22.924l3.229,8.4v94.6c29.059,7.1,51.983-22.6,51.983-22.6l15.5,38.422h0a43.761,43.761,0,0,0,8.395-28.09l-4.52-86.531L375.4,84.5l-18.727,4.52-2.26,2.26a17.328,17.328,0,0,1-27.444-2.26h0Z" transform="translate(-136.145 22.695)"/>
        <path id="Path_183" data-name="Path 183" class="cls-5" d="M264.527,87.462l-17.435-3.229,1.291,2.583A3.224,3.224,0,0,0,250,88.108l14.207,4.52,8.718,12.915,7.749,6.78,40.036,65.221,57.472,8.072V157.2l-41.651-2.26L287.774,98.117l-1.937-11.946-7.749-11.946L275.827,62.6l-8.072-11.3a8.46,8.46,0,0,0,.646,8.718l1.614,2.583,2.26,11.3-.323.323a5.257,5.257,0,0,0-1.937-.969l-1.937-3.229L252.257,60.018V62.6a4.6,4.6,0,0,0,1.937,3.875l11.624,9.04.969,2.26-.646,1.292L261.3,75.193l-15.5-3.552v4.2l10.655,2.906L264.2,83.91" transform="translate(-245.8 -51.3)"/>
        <path id="Path_184" data-name="Path 184" class="cls-7" d="M268.007,63.625h0l-.323-.646-5.166-1.292a4.483,4.483,0,0,0-3.552.646L253.8,66.208l.323.646,4.843-3.552a4.483,4.483,0,0,1,3.552-.646l5.489.969Z" transform="translate(-227.97 -28.431)"/>
        <path id="Path_185" data-name="Path 185" class="cls-7" d="M284.9,111.544l6.458.969V84.1H289.42Z" transform="translate(-158.656 21.803)"/>
        <path id="Path_186" data-name="Path 186" class="cls-6" d="M345.34,81.1,320.8,85.62l-33.9,3.229v32.288l26.153,8.4L345.34,96.6Z" transform="translate(-154.198 15.117)"/>
        <path id="Path_187" data-name="Path 187" class="cls-17" d="M329.25,137.778v-3.552c-.969-1.292-1.937-2.26-2.906-3.552l2.906-1.937.323-14.207c-.646-.323-1.292-.323-1.937-.646a3.545,3.545,0,0,0-.646-4.843l-.323-.323a28.393,28.393,0,0,1,3.229-1.937V100c-.969-.969-2.583-.969-4.2,0-2.906,1.614-5.812,3.552-8.395,5.166-2.26,1.292-2.583,5.166-.323,6.458h0a3.923,3.923,0,0,0,.969,7.1l8.718,2.906c-2.583,1.937-6.457,3.552-8.072,5.166a4.422,4.422,0,0,0-.646,4.843c.323.646,1.937,2.583,2.26,3.229,3.552,9.363,0,7.426.646,13.884a27.921,27.921,0,0,0,1.937,7.426c-4.2-2.26,7.1,2.26,3.875-2.26C323.761,150.047,329.25,137.778,329.25,137.778Z" transform="translate(-91.291 55.624)"/>
        <path id="Path_188" data-name="Path 188" class="cls-11" d="M360.044,124.1l-3.552,29.059L331.308,139.6l-1.614-16.79-7.1-6.457-2.583-10.332L310,94.4h0a8.027,8.027,0,0,0,.646,8.072l3.552,5.489-.323,13.884-2.583.969-8.718-11.624h0a7.343,7.343,0,0,0-1.292,9.041l18.727,29.7L363.6,181.576h0l-1.614-32.61L362.3,124.1Z" transform="translate(-124.345 44.759)"/>
        <path id="Path_189" data-name="Path 189" class="cls-5" d="M378.968,124.165,373.8,171.3l-4.843,7.1a6.92,6.92,0,0,1-10.009,1.614L320.2,149.672l-18.727-29.7a6.944,6.944,0,0,1,1.292-9.041h0l8.718,11.624,2.583-.969.323-13.884-4.843-7.426a7.887,7.887,0,0,1-.323-7.1l.646-.969L320.2,105.761l2.583,10.332,7.1,6.458L331.5,139.34l25.192,13.56,3.552-29.059h18.727Z" transform="translate(-124.219 39.856)"/>
        <path id="Path_190" data-name="Path 190" class="cls-7" d="M338.3,102.1H319.25l-.646,4.843h19.05Z" transform="translate(-83.547 61.921)"/>
        <path id="Path_191" data-name="Path 191" class="cls-6" d="M314.2,81.1l32.61,13.561a7.71,7.71,0,0,1,4.843,7.1V148.9H325.5V128.24L314.2,96.6Z" transform="translate(-93.353 15.117)"/>
      </g>
    </g>
    <g id="Group_127" data-name="Group 127" transform="translate(104.785 -0.05)">
      <g id="Group_123" data-name="Group 123" transform="translate(212.775 71.517)">
        <path id="Path_192" data-name="Path 192" class="cls-18" d="M107.986,41.473a9.686,9.686,0,1,1,9.686-9.686C118,36.952,113.475,41.473,107.986,41.473Zm0-14.529a4.52,4.52,0,1,0,4.52,4.52,4.414,4.414,0,0,0-4.52-4.521Z" transform="translate(-98.3 -22.1)"/>
      </g>
      <g id="Group_124" data-name="Group 124" transform="translate(358.392 510.627)">
        <path id="Path_193" data-name="Path 193" class="cls-18" d="M153.086,177.472a9.686,9.686,0,1,1,9.686-9.686A9.931,9.931,0,0,1,153.086,177.472Zm0-14.529a4.52,4.52,0,1,0,4.52,4.52,4.414,4.414,0,0,0-4.52-4.52Z" transform="translate(-143.4 -158.1)"/>
      </g>
      <g id="Group_125" data-name="Group 125" transform="translate(506.914 565.839)">
        <path id="Path_194" data-name="Path 194" class="cls-18" d="M196.18,188.761a6.78,6.78,0,1,1,6.78-6.78,6.621,6.621,0,0,1-6.78,6.78Zm0-9.686a3.229,3.229,0,1,0,3.229,3.229,3.05,3.05,0,0,0-3.229-3.23Z" transform="translate(-189.4 -175.2)"/>
      </g>
      <g id="Group_126" data-name="Group 126" transform="translate(740.03 368.562)">
        <path id="Path_195" data-name="Path 195" class="cls-19" d="M270.963,132.827a9.363,9.363,0,1,1,9.363-9.363,9.363,9.363,0,0,1-9.363,9.363Zm0-13.561a4.52,4.52,0,1,0,4.52,4.52,4.414,4.414,0,0,0-4.52-4.52Z" transform="translate(-261.6 -114.1)"/>
      </g>
      <path id="Path_196" data-name="Path 196" class="cls-20" d="M117.29,127.3h-4.52v-4.52a2.583,2.583,0,0,0-5.166,0v4.52h-4.52a2.583,2.583,0,1,0,0,5.166h4.52v4.52a2.583,2.583,0,0,0,5.166,0v-4.52h4.52a2.583,2.583,0,1,0,0-5.166Z" transform="translate(119.378 268.057)"/>
      <path id="Path_197" data-name="Path 197" class="cls-20" d="M200.669.434l-1.937,1.937L196.794.434a1.561,1.561,0,0,0-2.26,0,1.561,1.561,0,0,0,0,2.26l1.937,1.937-1.937,1.937a1.6,1.6,0,0,0,2.26,2.26l1.937-1.937,1.937,1.937a1.6,1.6,0,0,0,2.26-2.26l-1.937-1.937,1.937-1.937a1.561,1.561,0,0,0,0-2.26,2.758,2.758,0,0,0-2.259,0Z" transform="translate(327.878 0.05)"/>
      <path id="Path_198" data-name="Path 198" class="cls-20" d="M346.069,34.234l-1.937,1.937-1.937-1.937a1.6,1.6,0,0,0-2.26,2.26l1.937,1.937-1.937,1.937a1.6,1.6,0,0,0,2.26,2.26l1.937-1.937,1.937,1.937a1.6,1.6,0,1,0,2.26-2.26l-1.937-1.937,1.937-1.937a1.6,1.6,0,0,0-2.26-2.26Z" transform="translate(651.938 75.382)"/>
      <path id="Path_199" data-name="Path 199" class="cls-6" d="M172.869,9.966H169.64V6.737a1.938,1.938,0,0,0-3.875,0V9.966h-3.229A1.861,1.861,0,0,0,160.6,11.9a1.712,1.712,0,0,0,1.937,1.937h3.229v3.229a1.938,1.938,0,0,0,3.875,0V13.841h3.229a1.861,1.861,0,0,0,1.937-1.937,1.861,1.861,0,0,0-1.938-1.938Z" transform="translate(253.326 10.859)"/>
      <path id="Path_200" data-name="Path 200" class="cls-5" d="M138.069,21.366H134.84V18.137a1.938,1.938,0,0,0-3.875,0v3.229h-3.229a1.937,1.937,0,1,0,0,3.875h3.229V28.47a1.938,1.938,0,1,0,3.875,0V25.241h3.229a1.861,1.861,0,0,0,1.937-1.937,2.083,2.083,0,0,0-1.937-1.938Z" transform="translate(175.765 36.267)"/>
      <path id="Path_201" data-name="Path 201" class="cls-6" d="M210.869,139.166H207.64v-3.229a1.938,1.938,0,1,0-3.875,0v3.229h-3.229a1.938,1.938,0,0,0,0,3.875h3.229v3.229a1.938,1.938,0,0,0,3.875,0v-3.229h3.229a1.861,1.861,0,0,0,1.937-1.937,1.712,1.712,0,0,0-1.937-1.938Z" transform="translate(435.019 308.814)"/>
      <circle id="Ellipse_3" data-name="Ellipse 3" class="cls-6" cx="2.906" cy="2.906" r="2.906" transform="translate(0 268.794)"/>
      <circle id="Ellipse_4" data-name="Ellipse 4" class="cls-21" cx="5.166" cy="5.166" r="5.166" transform="translate(40.037 310.445)"/>
    </g>
    <g id="Group_130" data-name="Group 130" transform="translate(466.831 18.426)">
      <g id="Group_129" data-name="Group 129" transform="translate(193.725 211.528)">
        <path id="Path_209" data-name="Path 209" class="cls-22" d="M206.8,78.667Z" transform="translate(-206.477 -77.053)"/>
        <path id="Path_210" data-name="Path 210" class="cls-22" d="M216.386,82.52a3.025,3.025,0,0,0-.646-3.552c-.969-.969-2.583-.969-4.2-.969a8.408,8.408,0,0,0-4.843,1.292c1.291.969,2.906,2.26,4.2,3.229.646.323,1.291.969,1.937,1.292a3.349,3.349,0,0,0,3.552-1.292Z" transform="translate(-206.7 -78)"/>
      </g>
      <path id="Path_211" data-name="Path 211" class="cls-22" d="M185.526,70.566A4.987,4.987,0,0,0,182.62,65.4c-1.937-.646-4.52.969-4.52,2.906a2.923,2.923,0,0,1,3.229.969c.646.646.969,1.292,1.614,1.614a1.553,1.553,0,0,0,1.937-.646Z" transform="translate(-76.717 105.123)"/>
      <path id="Path_212" data-name="Path 212" class="cls-22" d="M208.753,89.055c-.323-1.292-.323-2.26-1.292-3.229a2.157,2.157,0,0,0-3.229-.323V85.18l-.969,1.937c-.646,1.614-1.291,3.874-.323,5.489.646,1.614,3.229,2.906,4.52,1.937C209.4,93.253,209.076,90.993,208.753,89.055Z" transform="translate(-22.454 148.948)"/>
      <path id="Path_213" data-name="Path 213" class="cls-6" d="M186.973,136.2a55.621,55.621,0,0,0-20.018,10.009l-1.937,1.937a3.666,3.666,0,0,0-.969,2.583c-1.292,5.489.969,11.624,5.489,14.529,4.843,2.906,11.946,1.614,14.529-3.229a15.95,15.95,0,0,0,1.614-7.749,164.288,164.288,0,0,0,1.292-18.081Z" transform="translate(-108.837 263.241)"/>
      <path id="Path_214" data-name="Path 214" class="cls-6" d="M184.428,137.4c-1.292-2.906-5.489-2.906-8.718-2.26v-.323c-.323,2.906-.323,6.135,1.614,8.4s6.135,2.583,7.1,0a6.294,6.294,0,0,0,.323-2.583,9.958,9.958,0,0,0-.319-3.229Z" transform="translate(-82.4 260.104)"/>
      <path id="Path_215" data-name="Path 215" class="cls-6" d="M223.507,13.177c-3.229-.646-6.458-1.292-9.363.323a8.569,8.569,0,0,0-3.552,6.135,26.245,26.245,0,0,0,.323,7.1l.969,5.812-.323.969c.323-1.614,1.937-2.906,3.552-3.875,1.937-.969,3.875-2.26,5.812-3.229,1.614-.969,3.552-1.937,4.843-3.552C227.059,19.957,226.413,15.114,223.507,13.177Z" transform="translate(91.402 -3.486)"/>
      <g id="ethereum" class="cls-23" transform="translate(-621.909 -87.476)">
        <g id="ethereum-1" transform="translate(673.276 129)">
          <path id="Path_3" data-name="Path 3" class="cls-24" d="M127.56,0l-2.39,8.168V245.211l2.39,2.39,110.027-65.03Z" transform="translate(-17.53)"/>
          <path id="Path_4" data-name="Path 4" class="cls-25" d="M110.033,0,0,182.571l110.033,65.042Z"/>
          <path id="Path_5" data-name="Path 5" class="cls-26" d="M127.739,301.589l-1.353,1.652v84.44l1.353,3.955,110.1-155.048Z" transform="translate(-17.709 -33.145)"/>
          <path id="Path_6" data-name="Path 6" class="cls-27" d="M110.033,391.639V301.591L0,236.585Z" transform="translate(0 -33.15)"/>
          <path id="Path_7" data-name="Path 7" class="cls-4" d="M127.961,269.211l110.03-65.039-110.03-50.013Z" transform="translate(-17.928 -21.601)"/>
          <path id="Path_8" data-name="Path 8" class="cls-2" d="M0,204.174,110.03,269.21V154.158Z" transform="translate(0 -21.6)"/>
        </g>
      </g>
    </g>
  </g>
</svg>
